<svg width="51" height="51" viewBox="0 0 51 51" fill="none" xmlns="http://www.w3.org/2000/svg">
<path d="M42.6899 45.5358C42.6899 46.5019 42.3059 47.4286 41.6229 48.1117C40.9395 48.7947 40.0131 49.1787 39.047 49.1787H6.26114C5.29498 49.1787 4.36842 48.7947 3.68524 48.1117C3.00209 47.4286 2.61829 46.5019 2.61829 45.5358V5.46439C2.61829 4.49823 3.00209 3.57167 3.68524 2.8885C4.36842 2.20533 5.29498 1.82153 6.26114 1.82153H26.6094C27.5755 1.82153 28.5021 2.20533 29.1852 2.8885L41.6229 15.326C42.3059 16.0091 42.6899 16.9357 42.6899 17.9019V45.5358Z" stroke="white" stroke-width="2" stroke-linecap="round" stroke-linejoin="round"/>
<path d="M24.6888 23.2234H33.796" stroke="white" stroke-width="2" stroke-linecap="round" stroke-linejoin="round"/>
<path d="M24.6888 35.8594H33.796" stroke="white" stroke-width="2" stroke-linecap="round" stroke-linejoin="round"/>
<path d="M10.6013 35.6533L13.6536 38.7056L18.7408 31.5835" stroke="white" stroke-width="2" stroke-linecap="round" stroke-linejoin="round"/>
<path d="M10.6013 22.7892L13.6536 25.8416L18.7408 18.7195" stroke="white" stroke-width="2" stroke-linecap="round" stroke-linejoin="round"/>
</svg>
