<svg width="53" height="53" viewBox="0 0 53 53" fill="none" xmlns="http://www.w3.org/2000/svg">
<path d="M26.5 18.4556V26.5002L31.2321 31.2324" stroke="white" stroke-width="2" stroke-linecap="round" stroke-linejoin="round"/>
<path d="M26.4999 43.5358C35.9085 43.5358 43.5357 35.9086 43.5357 26.5001C43.5357 17.0915 35.9085 9.46436 26.4999 9.46436C17.0914 9.46436 9.46423 17.0915 9.46423 26.5001C9.46423 35.9086 17.0914 43.5358 26.4999 43.5358Z" stroke="white" stroke-width="2" stroke-linecap="round" stroke-linejoin="round"/>
<path d="M35.9642 12.3038V5.67878C35.9642 4.67473 35.5654 3.71184 34.8554 3.00188C34.1454 2.29192 33.1825 1.89307 32.1785 1.89307H20.8214C19.8173 1.89307 18.8544 2.29192 18.1444 3.00188C17.4345 3.71184 17.0356 4.67473 17.0356 5.67878V12.3038" stroke="white" stroke-width="2" stroke-linecap="round" stroke-linejoin="round"/>
<path d="M35.9642 40.6377V47.3218C35.9642 48.3257 35.5654 49.2888 34.8554 49.9986C34.1454 50.7085 33.1825 51.1075 32.1785 51.1075H20.8214C19.8173 51.1075 18.8544 50.7085 18.1444 49.9986C17.4345 49.2888 17.0356 48.3257 17.0356 47.3218V40.6377" stroke="white" stroke-width="2" stroke-linecap="round" stroke-linejoin="round"/>
</svg>
