<svg width="51" height="51" viewBox="0 0 51 51" fill="none" xmlns="http://www.w3.org/2000/svg">
<g clip-path="url(#clip0_12_106)">
<path d="M14.6782 16.393C18.702 16.393 21.9639 13.131 21.9639 9.10725C21.9639 5.08346 18.702 1.82153 14.6782 1.82153C10.6544 1.82153 7.39246 5.08346 7.39246 9.10725C7.39246 13.131 10.6544 16.393 14.6782 16.393Z" stroke="white" stroke-width="2" stroke-linecap="round" stroke-linejoin="round"/>
<path d="M20.8214 38.3395L19.4665 49.1788H9.93242L8.11099 34.6074H1.9281V29.1431C1.9281 25.7615 3.2714 22.5185 5.66248 20.1275C8.05358 17.7364 11.2966 16.3931 14.6781 16.3931C18.0596 16.3931 21.3026 17.7364 23.6937 20.1275C25.5328 21.9666 26.7521 24.3097 27.217 26.8322" stroke="white" stroke-width="2" stroke-linecap="round" stroke-linejoin="round"/>
<path d="M26.5743 36.3213C26.5743 34.5461 28.0135 33.1069 29.7887 33.1069H45.8603C47.6354 33.1069 49.0744 34.5461 49.0744 36.3213V45.9643C49.0744 47.7395 47.6354 49.1784 45.8603 49.1784H29.7887C28.0135 49.1784 26.5743 47.7395 26.5743 45.9643V36.3213Z" stroke="white" stroke-width="2" stroke-linecap="round" stroke-linejoin="round"/>
<path d="M33.426 33.1071V30.7359C33.426 28.724 35.057 27.093 37.069 27.093H38.572C40.5836 27.093 42.2149 28.724 42.2149 30.7359V33.1071" stroke="white" stroke-width="2" stroke-linecap="round" stroke-linejoin="round"/>
</g>
<defs>
<clipPath id="clip0_12_106">
<rect width="51" height="51" fill="white"/>
</clipPath>
</defs>
</svg>
