<svg width="51" height="41" viewBox="0 0 51 41" fill="none" xmlns="http://www.w3.org/2000/svg">
<path d="M25.4999 39.6244C28.1355 39.6244 30.2721 37.4879 30.2721 34.8523C30.2721 32.2167 28.1355 30.0801 25.4999 30.0801C22.8644 30.0801 20.7278 32.2167 20.7278 34.8523C20.7278 37.4879 22.8644 39.6244 25.4999 39.6244Z" stroke="white" stroke-width="2" stroke-linecap="round" stroke-linejoin="round"/>
<path d="M16.5021 24.1424C17.6866 22.9263 19.1028 21.9597 20.6669 21.2998C22.231 20.6398 23.9115 20.2998 25.6092 20.2998C27.3069 20.2998 28.9874 20.6398 30.5515 21.2998C32.1157 21.9597 33.5318 22.9263 34.7164 24.1424" stroke="white" stroke-width="2" stroke-linecap="round" stroke-linejoin="round"/>
<path d="M8.59705 17.9865C10.8145 15.7561 13.451 13.9861 16.3549 12.7783C19.2589 11.5705 22.373 10.9487 25.5181 10.9487C28.6632 10.9487 31.7773 11.5705 34.6813 12.7783C37.5851 13.9861 40.2218 15.7561 42.4392 17.9865" stroke="white" stroke-width="2" stroke-linecap="round" stroke-linejoin="round"/>
<path d="M1.82141 11.2105C4.93033 8.09996 8.62168 5.63247 12.6846 3.94896C16.7474 2.26545 21.1021 1.39893 25.5 1.39893C29.8978 1.39893 34.2526 2.26545 38.3156 3.94896C42.3784 5.63247 46.0697 8.09996 49.1786 11.2105" stroke="white" stroke-width="2" stroke-linecap="round" stroke-linejoin="round"/>
</svg>
